<svg xmlns="http://www.w3.org/2000/svg" version="1.1" xmlns:xlink="http://www.w3.org/1999/xlink" xmlns:svgjs="http://svgjs.dev/svgjs" width="2000" height="196" viewBox="0 0 2000 196"><g transform="matrix(1,0,0,1,-1.2121212121212466,-0.7130735852407923)"><svg viewBox="0 0 396 39" data-background-color="#e9efe7" preserveAspectRatio="xMidYMid meet" height="196" width="2000" xmlns="http://www.w3.org/2000/svg" xmlns:xlink="http://www.w3.org/1999/xlink"><g id="tight-bounds" transform="matrix(1,0,0,1,0.2400000000000091,0.14188709094077012)"><svg viewBox="0 0 395.52 38.71622581811843" height="38.71622581811843" width="395.52"><g><svg viewBox="0 0 464.0945324962086 45.428774072303085" height="38.71622581811843" width="395.52"><g><rect width="4.076431570482722" height="45.428774072303085" x="53.8268140920015" y="0" fill="#ffffff" opacity="1" stroke-width="0" stroke="transparent" fill-opacity="1" class="rect-qz-0" data-fill-palette-color="primary" rx="1%" id="qz-0" data-palette-color="#2a2c35"></rect></g><g transform="matrix(1,0,0,1,68.57453249620863,0.11300690067736952)"><svg viewBox="0 0 395.52 45.202760270948346" height="45.202760270948346" width="395.52"><g id="textblocktransform"><svg viewBox="0 0 395.52 45.202760270948346" height="45.202760270948346" width="395.52" id="textblock"><g><svg viewBox="0 0 395.52 45.202760270948346" height="45.202760270948346" width="395.52"><g transform="matrix(1,0,0,1,0,0)"><svg width="395.52" viewBox="3.16 -38.44 340.9912809183587 38.97" height="45.202760270948346" data-palette-color="#2a2c35"><g transform="matrix(1,0,0,1,0,0)"><g><svg width="11.306430918358688" viewBox="3.16 -36.36 71.8 36.36" height="5.72590764609263" data-palette-color="#2a2c35" id="scriptelement" x="330.5032154591794" y="-33.30810382304631"><path d="M10.85 0L3.16 0 3.16-36.36 17.51-36.36Q21.64-36.36 24.56-34.79 27.47-33.22 29-30.44 30.54-27.66 30.54-24.04L30.54-24.04Q30.54-20.42 28.98-17.65 27.41-14.88 24.46-13.33 21.5-11.79 17.31-11.79L17.31-11.79 8.17-11.79 8.17-17.95 16.07-17.95Q18.29-17.95 19.74-18.72 21.18-19.5 21.9-20.87 22.62-22.25 22.62-24.04L22.62-24.04Q22.62-25.85 21.9-27.21 21.18-28.57 19.73-29.32 18.27-30.08 16.03-30.08L16.03-30.08 10.85-30.08 10.85 0ZM35.54 0L35.54-36.36 45.03-36.36 55.04-11.93 55.47-11.93 65.48-36.36 74.96-36.36 74.96 0 67.5 0 67.5-23.67 67.2-23.67 57.79-0.18 52.71-0.18 43.3-23.76 43-23.76 43 0 35.54 0Z" opacity="1" transform="matrix(1,0,0,1,0,0)" fill="#ffffff" class="undefined-123" data-fill-palette-color="primary" id="yy-123"></path></svg></g></g><path d="M328.162-30.445C328.162-34.861 331.741-38.44 336.156-38.44 340.572-38.44 344.151-34.861 344.151-30.445 344.151-26.03 340.572-22.45 336.156-22.45 331.741-22.45 328.162-26.03 328.162-30.445ZM336.156-22.85C340.351-22.85 343.751-26.251 343.751-30.445 343.751-34.64 340.351-38.04 336.156-38.04 331.962-38.04 328.562-34.64 328.562-30.445 328.562-26.251 331.962-22.85 336.156-22.85Z" fill="#ffffff" id="scriptcircle" data-fill-palette-color="primary"></path><g class="wordmark-text-0" data-fill-palette-color="primary" id="text-0"><path d="M10.85 0L3.16 0 3.16-36.36 17.51-36.36Q21.64-36.36 24.56-34.79 27.47-33.22 29-30.44 30.54-27.66 30.54-24.04L30.54-24.04Q30.54-20.42 28.98-17.65 27.41-14.88 24.46-13.33 21.5-11.79 17.31-11.79L17.31-11.79 8.17-11.79 8.17-17.95 16.07-17.95Q18.29-17.95 19.74-18.72 21.18-19.5 21.9-20.87 22.62-22.25 22.62-24.04L22.62-24.04Q22.62-25.85 21.9-27.21 21.18-28.57 19.73-29.32 18.27-30.08 16.03-30.08L16.03-30.08 10.85-30.08 10.85 0ZM42.97 0L35.4 0 35.4-27.27 42.74-27.27 42.74-22.51 43.02-22.51Q43.77-25.05 45.52-26.36 47.28-27.66 49.57-27.66L49.57-27.66Q50.14-27.66 50.8-27.59 51.45-27.52 51.95-27.4L51.95-27.4 51.95-20.69Q51.42-20.85 50.48-20.97 49.54-21.09 48.75-21.09L48.75-21.09Q47.09-21.09 45.78-20.37 44.48-19.66 43.72-18.38 42.97-17.1 42.97-15.43L42.97-15.43 42.97 0ZM63.4 0L55.84 0 55.84-27.27 63.4-27.27 63.4 0ZM59.64-30.79L59.64-30.79Q57.95-30.79 56.75-31.92 55.55-33.04 55.55-34.62L55.55-34.62Q55.55-36.19 56.75-37.31 57.95-38.44 59.64-38.44L59.64-38.44Q61.32-38.44 62.52-37.31 63.72-36.19 63.72-34.62L63.72-34.62Q63.72-33.04 62.52-31.92 61.32-30.79 59.64-30.79ZM67.52-27.27L83.94-27.27 83.94-21.59 67.52-21.59 67.52-27.27ZM71.25-7.39L71.25-33.81 78.81-33.81 78.81-8.38Q78.81-7.33 79.13-6.76 79.45-6.18 80.03-5.95 80.6-5.72 81.37-5.72L81.37-5.72Q81.9-5.72 82.43-5.81 82.96-5.91 83.25-5.97L83.25-5.97 84.44-0.34Q83.87-0.16 82.84 0.08 81.81 0.32 80.34 0.37L80.34 0.37Q77.6 0.48 75.55-0.36 73.5-1.19 72.36-2.95 71.23-4.71 71.25-7.39L71.25-7.39ZM101.18 0.53L101.18 0.53Q96.99 0.53 93.98-1.25 90.97-3.04 89.36-6.21 87.76-9.39 87.76-13.53L87.76-13.53Q87.76-17.72 89.38-20.89 91.01-24.06 94.01-25.84 97.01-27.63 101.14-27.63L101.14-27.63Q104.71-27.63 107.39-26.33 110.08-25.04 111.64-22.69 113.2-20.35 113.36-17.19L113.36-17.19 106.22-17.19Q105.92-19.23 104.63-20.48 103.35-21.73 101.27-21.73L101.27-21.73Q99.51-21.73 98.21-20.78 96.9-19.83 96.17-18.02 95.44-16.21 95.44-13.64L95.44-13.64Q95.44-11.03 96.16-9.2 96.88-7.37 98.2-6.41 99.51-5.45 101.27-5.45L101.27-5.45Q102.56-5.45 103.6-5.98 104.64-6.52 105.33-7.54 106.01-8.56 106.22-10L106.22-10 113.36-10Q113.18-6.87 111.66-4.5 110.15-2.13 107.48-0.8 104.82 0.53 101.18 0.53ZM125.79-15.77L125.79-15.77 125.79 0 118.22 0 118.22-36.36 125.57-36.36 125.57-22.46 125.89-22.46Q126.82-24.88 128.88-26.25 130.94-27.63 134.04-27.63L134.04-27.63Q136.88-27.63 139.01-26.39 141.13-25.16 142.31-22.86 143.49-20.56 143.47-17.37L143.47-17.37 143.47 0 135.91 0 135.91-16.02Q135.93-18.54 134.64-19.94 133.35-21.34 131.04-21.34L131.04-21.34Q129.5-21.34 128.32-20.69 127.14-20.03 126.47-18.78 125.8-17.52 125.79-15.77ZM149.58 0L149.58-36.36 159.06-36.36 169.07-11.93 169.5-11.93 179.51-36.36 188.99-36.36 188.99 0 181.54 0 181.54-23.67 181.24-23.67 171.82-0.18 166.75-0.18 157.34-23.76 157.03-23.76 157.03 0 149.58 0ZM202.95 0.51L202.95 0.51Q200.34 0.51 198.3-0.4 196.25-1.31 195.07-3.12 193.89-4.92 193.89-7.62L193.89-7.62Q193.89-9.89 194.73-11.43 195.56-12.98 197-13.92 198.44-14.86 200.28-15.34 202.11-15.82 204.14-16.02L204.14-16.02Q206.52-16.26 207.97-16.49 209.43-16.71 210.09-17.15 210.74-17.6 210.74-18.47L210.74-18.47 210.74-18.57Q210.74-20.26 209.69-21.18 208.63-22.11 206.69-22.11L206.69-22.11Q204.65-22.11 203.44-21.21 202.24-20.31 201.85-18.96L201.85-18.96 194.85-19.53Q195.38-22.02 196.95-23.84 198.51-25.66 200.99-26.64 203.46-27.63 206.73-27.63L206.73-27.63Q209-27.63 211.09-27.1 213.17-26.56 214.8-25.44 216.42-24.33 217.37-22.58 218.31-20.83 218.31-18.39L218.31-18.39 218.31 0 211.13 0 211.13-3.78 210.92-3.78Q210.26-2.5 209.16-1.54 208.06-0.57 206.52-0.03 204.97 0.51 202.95 0.51ZM205.11-4.71L205.11-4.71Q206.78-4.71 208.06-5.37 209.34-6.04 210.07-7.17 210.8-8.31 210.8-9.75L210.8-9.75 210.8-12.64Q210.44-12.41 209.83-12.22 209.22-12.04 208.45-11.89 207.69-11.74 206.92-11.62 206.16-11.51 205.54-11.42L205.54-11.42Q204.21-11.22 203.21-10.8 202.22-10.37 201.67-9.65 201.12-8.93 201.12-7.87L201.12-7.87Q201.12-6.32 202.25-5.51 203.37-4.71 205.11-4.71ZM231.74 0L224.18 0 224.18-27.27 231.39-27.27 231.39-22.46 231.71-22.46Q232.56-24.86 234.55-26.24 236.54-27.63 239.31-27.63L239.31-27.63Q242.11-27.63 244.09-26.23 246.06-24.84 246.71-22.46L246.71-22.46 247-22.46Q247.83-24.8 250.02-26.22 252.22-27.63 255.22-27.63L255.22-27.63Q259.04-27.63 261.42-25.2 263.81-22.78 263.81-18.34L263.81-18.34 263.81 0 256.27 0 256.27-16.85Q256.27-19.12 255.06-20.26 253.85-21.4 252.04-21.4L252.04-21.4Q249.98-21.4 248.83-20.09 247.67-18.79 247.67-16.65L247.67-16.65 247.67 0 240.34 0 240.34-17.01Q240.34-19.02 239.19-20.21 238.05-21.4 236.18-21.4L236.18-21.4Q234.92-21.4 233.92-20.77 232.92-20.13 232.33-19.01 231.74-17.88 231.74-16.37L231.74-16.37 231.74 0ZM277.37 0L269.92 0 269.92-36.36 277.48-36.36 277.48-22.69 277.71-22.69Q278.21-23.79 279.16-24.94 280.11-26.08 281.64-26.86 283.18-27.63 285.47-27.63L285.47-27.63Q288.45-27.63 290.98-26.07 293.5-24.52 295.01-21.4 296.52-18.29 296.52-13.6L296.52-13.6Q296.52-9.04 295.05-5.9 293.59-2.77 291.07-1.16 288.56 0.44 285.45 0.44L285.45 0.44Q283.25 0.44 281.72-0.28 280.18-1.01 279.2-2.12 278.23-3.23 277.71-4.37L277.71-4.37 277.37-4.37 277.37 0ZM277.32-13.64L277.32-13.64Q277.32-11.2 278-9.39 278.67-7.58 279.95-6.58 281.23-5.58 283.06-5.58L283.06-5.58Q284.9-5.58 286.18-6.6 287.46-7.62 288.13-9.44 288.79-11.26 288.79-13.64L288.79-13.64Q288.79-16 288.13-17.79 287.48-19.58 286.2-20.6 284.92-21.61 283.06-21.61L283.06-21.61Q281.21-21.61 279.94-20.63 278.67-19.66 278-17.86 277.32-16.07 277.32-13.64ZM324.23-19.5L324.23-19.5 317.3-19.07Q317.13-19.96 316.54-20.68 315.96-21.4 315.01-21.83 314.06-22.27 312.74-22.27L312.74-22.27Q310.98-22.27 309.78-21.53 308.57-20.79 308.57-19.57L308.57-19.57Q308.57-18.59 309.35-17.92 310.13-17.24 312.03-16.83L312.03-16.83 316.97-15.84Q320.94-15.02 322.9-13.21 324.85-11.4 324.85-8.45L324.85-8.45Q324.85-5.77 323.28-3.75 321.71-1.72 318.98-0.59 316.26 0.53 312.71 0.53L312.71 0.53Q307.29 0.53 304.09-1.73 300.88-4 300.33-7.9L300.33-7.9 307.77-8.29Q308.11-6.64 309.4-5.78 310.7-4.92 312.72-4.92L312.72-4.92Q314.71-4.92 315.93-5.69 317.14-6.46 317.16-7.69L317.16-7.69Q317.14-8.72 316.29-9.38 315.44-10.05 313.66-10.4L313.66-10.4 308.94-11.35Q304.95-12.14 303-14.12 301.06-16.09 301.06-19.14L301.06-19.14Q301.06-21.77 302.49-23.67 303.92-25.57 306.52-26.6 309.12-27.63 312.62-27.63L312.62-27.63Q317.78-27.63 320.76-25.44 323.73-23.26 324.23-19.5Z" fill="#ffffff" data-fill-palette-color="primary"></path></g></svg></g></svg></g></svg></g></svg></g><g transform="matrix(1,0,0,1,0,0.11300690067736952)"><svg viewBox="0 0 43.1555272582771 45.202760270948346" height="45.202760270948346" width="43.1555272582771"><g><svg version="1.0" xmlns="http://www.w3.org/2000/svg" xmlns:xlink="http://www.w3.org/1999/xlink" x="0" y="0" viewBox="0 0 95.471 100" enable-background="new 0 0 95.471 100" xml:space="preserve" width="43.1555272582771" height="45.202760270948346" class="icon-icon-0" data-fill-palette-color="accent" id="icon-0"><path d="M47.735 0c-0.083 2.825-1.738 13.412-19.799 30.934C10.554 47.797 2.439 49.824 0 50c2.439 0.178 10.554 2.204 27.936 19.066C45.997 86.589 47.652 97.177 47.735 100c0.083-2.823 1.739-13.411 19.798-30.934C84.917 52.204 93.031 50.178 95.471 50c-2.439-0.176-10.554-2.203-27.938-19.066C49.475 13.412 47.819 2.825 47.735 0z" fill="#ffffff" data-fill-palette-color="accent"></path></svg></g></svg></g></svg></g><defs></defs></svg><rect width="395.52" height="38.71622581811843" fill="none" stroke="none" visibility="hidden"></rect></g></svg></g></svg>